<?xml version="1.0" encoding="UTF-8"?>
<svg xmlns="http://www.w3.org/2000/svg" xmlns:xlink="http://www.w3.org/1999/xlink" width="32px" height="32px" viewBox="0 0 32 32" version="1.1">
<defs>
<filter id="alpha" filterUnits="objectBoundingBox" x="0%" y="0%" width="25%" height="25%">
  <feColorMatrix type="matrix" in="SourceGraphic" values="0 0 0 0 1 0 0 0 0 1 0 0 0 0 1 0 0 0 1 0"/>
</filter>
<mask id="mask0">
  <g filter="url(#alpha)">
<rect x="0" y="0" width="32" height="32" style="fill:rgb(0%,0%,0%);fill-opacity:0.678431;stroke:none;"/>
  </g>
</mask>
<clipPath id="clip1">
  <rect x="0" y="0" width="32" height="32"/>
</clipPath>
<g id="surface5" clip-path="url(#clip1)">
<path style=" stroke:none;fill-rule:nonzero;fill:rgb(93.333333%,95.294118%,79.215686%);fill-opacity:1;" d="M 25.957031 4.695312 C 25.957031 6.011719 24.890625 7.082031 23.570312 7.082031 C 22.253906 7.082031 21.183594 6.011719 21.183594 4.695312 C 21.183594 3.375 22.253906 2.308594 23.570312 2.308594 C 24.890625 2.308594 25.957031 3.375 25.957031 4.695312 Z M 25.957031 4.695312 "/>
</g>
<mask id="mask1">
  <g filter="url(#alpha)">
<rect x="0" y="0" width="32" height="32" style="fill:rgb(0%,0%,0%);fill-opacity:0.2;stroke:none;"/>
  </g>
</mask>
<clipPath id="clip2">
  <rect x="0" y="0" width="32" height="32"/>
</clipPath>
<g id="surface8" clip-path="url(#clip2)">
<path style=" stroke:none;fill-rule:nonzero;fill:rgb(72.941176%,85.882353%,61.960784%);fill-opacity:1;" d="M 29.238281 1.003906 L 29.238281 1.269531 C 29.238281 0.714844 28.746094 0.265625 28.136719 0.265625 L 3.894531 0.265625 C 3.289062 0.265625 2.792969 0.714844 2.792969 1.269531 L 2.792969 1.003906 C 2.792969 0.449219 3.289062 0 3.894531 0 L 28.136719 0 C 28.746094 0 29.238281 0.449219 29.238281 1.003906 Z M 29.238281 1.003906 "/>
</g>
</defs>
<g id="surface1">
<path style=" stroke:none;fill-rule:nonzero;fill:rgb(75.294118%,52.941176%,29.019608%);fill-opacity:1;" d="M 31.960938 10.855469 L 31.40625 11.203125 L 28.640625 12.941406 L 16.789062 20.378906 L 16.636719 20.476562 L 16.605469 20.496094 L 16.003906 20.878906 L 15.980469 20.886719 L 15.484375 20.578125 L 15.394531 20.519531 L 4.167969 13.46875 L 3.402344 12.992188 L 0.0390625 10.878906 L 0 10.855469 L 3.402344 8.71875 L 15.597656 1.0625 L 16.367188 1.0625 L 28.640625 8.765625 L 29.046875 9.023438 Z M 31.960938 10.855469 "/>
<path style=" stroke:none;fill-rule:nonzero;fill:rgb(41.176471%,69.803922%,37.254902%);fill-opacity:1;" d="M 29.242188 1.003906 L 29.242188 24.996094 C 29.242188 25.546875 28.75 25.996094 28.136719 25.996094 L 3.894531 25.996094 C 3.289062 25.996094 2.796875 25.546875 2.796875 24.996094 L 2.796875 1.003906 C 2.796875 0.449219 3.289062 0 3.894531 0 L 28.136719 0 C 28.75 0 29.242188 0.449219 29.242188 1.003906 Z M 29.242188 1.003906 "/>
<path style=" stroke:none;fill-rule:nonzero;fill:rgb(63.529412%,80%,52.54902%);fill-opacity:1;" d="M 6.925781 4.695312 L 18.832031 4.695312 L 18.832031 6.28125 L 6.925781 6.28125 Z M 6.925781 4.695312 "/>
<path style=" stroke:none;fill-rule:nonzero;fill:rgb(32.54902%,65.098039%,32.941176%);fill-opacity:1;" d="M 6.925781 4.441406 L 18.832031 4.441406 L 18.832031 6.03125 L 6.925781 6.03125 Z M 6.925781 4.441406 "/>
<path style=" stroke:none;fill-rule:nonzero;fill:rgb(63.529412%,80%,52.54902%);fill-opacity:1;" d="M 6.925781 13.417969 L 25.019531 13.417969 L 25.019531 15.003906 L 6.925781 15.003906 Z M 6.925781 13.417969 "/>
<path style=" stroke:none;fill-rule:nonzero;fill:rgb(32.54902%,65.098039%,32.941176%);fill-opacity:1;" d="M 6.925781 13.167969 L 25.019531 13.167969 L 25.019531 14.753906 L 6.925781 14.753906 Z M 6.925781 13.167969 "/>
<path style=" stroke:none;fill-rule:nonzero;fill:rgb(63.529412%,80%,52.54902%);fill-opacity:1;" d="M 6.925781 17.78125 L 25.019531 17.78125 L 25.019531 19.367188 L 6.925781 19.367188 Z M 6.925781 17.78125 "/>
<path style=" stroke:none;fill-rule:nonzero;fill:rgb(32.54902%,65.098039%,32.941176%);fill-opacity:1;" d="M 6.925781 17.527344 L 25.019531 17.527344 L 25.019531 19.117188 L 6.925781 19.117188 Z M 6.925781 17.527344 "/>
<path style=" stroke:none;fill-rule:nonzero;fill:rgb(63.529412%,80%,52.54902%);fill-opacity:1;" d="M 6.925781 9.054688 L 25.019531 9.054688 L 25.019531 10.640625 L 6.925781 10.640625 Z M 6.925781 9.054688 "/>
<path style=" stroke:none;fill-rule:nonzero;fill:rgb(32.54902%,65.098039%,32.941176%);fill-opacity:1;" d="M 6.925781 8.804688 L 25.019531 8.804688 L 25.019531 10.390625 L 6.925781 10.390625 Z M 6.925781 8.804688 "/>
<path style=" stroke:none;fill-rule:nonzero;fill:rgb(94.117647%,72.941176%,49.019608%);fill-opacity:1;" d="M 16.019531 20.132812 L 15.832031 20.242188 L 12.214844 22.355469 L 11.773438 22.617188 L 0.773438 29.035156 L 0.0390625 29.464844 L 0.0390625 10.800781 L 4.464844 13.386719 L 15.414062 19.777344 L 15.5 19.828125 L 16.003906 20.125 Z M 16.019531 20.132812 "/>
<path style=" stroke:none;fill-rule:nonzero;fill:rgb(89.803922%,65.882353%,39.215686%);fill-opacity:1;" d="M 31.890625 10.457031 C 31.949219 10.421875 32 10.449219 32 10.519531 L 32 28.929688 C 32 29 32 29.058594 31.996094 29.054688 C 31.996094 29.054688 31.988281 29.050781 31.980469 29.042969 C 31.972656 29.039062 31.964844 29.03125 31.957031 29.027344 C 31.953125 29.023438 31.945312 29.019531 31.945312 29.019531 C 31.941406 29.019531 31.890625 28.992188 31.832031 28.957031 L 16.59375 20.0625 C 16.53125 20.027344 16.433594 19.96875 16.375 19.933594 L 16.320312 19.902344 C 16.261719 19.867188 16.167969 19.8125 16.113281 19.78125 C 16.0625 19.75 16.070312 19.695312 16.128906 19.65625 L 16.515625 19.433594 C 16.578125 19.398438 16.632812 19.367188 16.636719 19.363281 C 16.640625 19.363281 16.648438 19.359375 16.652344 19.355469 C 16.65625 19.351562 16.710938 19.320312 16.769531 19.285156 L 17.109375 19.089844 C 17.171875 19.054688 17.269531 18.996094 17.332031 18.960938 Z M 31.890625 10.457031 "/>
<use xlink:href="#surface5" mask="url(#mask0)"/>
<path style=" stroke:none;fill-rule:nonzero;fill:rgb(75.294118%,52.941176%,29.019608%);fill-opacity:1;" d="M 32 26.578125 L 32 29.441406 L 31.96875 29.441406 L 31.507812 29.460938 L 1.730469 29.460938 L 1.710938 29.019531 C 2.25 28.652344 2.964844 28.152344 3.429688 27.839844 L 5.054688 26.722656 L 7.488281 25.039062 L 8.195312 24.554688 L 15.589844 19.453125 L 16.089844 19.105469 C 16.207031 19.03125 16.339844 18.964844 16.484375 18.925781 C 16.652344 18.867188 16.839844 18.828125 17.027344 18.8125 C 17.09375 18.804688 17.152344 18.800781 17.214844 18.804688 C 17.277344 18.796875 17.34375 18.796875 17.40625 18.796875 C 17.578125 18.789062 17.742188 18.804688 17.902344 18.839844 C 18.074219 18.871094 18.230469 18.925781 18.367188 19 L 23.976562 22.117188 L 26.75 23.660156 L 27.46875 24.0625 L 30.082031 25.515625 L 31.800781 26.472656 C 31.851562 26.5 31.902344 26.523438 31.957031 26.558594 C 31.96875 26.5625 31.984375 26.574219 32 26.578125 Z M 32 26.578125 "/>
<path style=" stroke:none;fill-rule:nonzero;fill:rgb(92.54902%,69.411765%,40.784314%);fill-opacity:1;" d="M 32 27.585938 L 32 29.460938 L 0.0390625 29.460938 L 0.0390625 27.585938 C 0.597656 27.246094 1.335938 26.78125 1.816406 26.492188 L 1.878906 26.449219 L 3.488281 25.453125 L 6.003906 23.890625 L 6.730469 23.4375 L 14.363281 18.699219 L 14.875 18.378906 C 15.144531 18.21875 15.488281 18.140625 15.832031 18.132812 C 15.894531 18.128906 15.953125 18.128906 16.019531 18.132812 C 16.082031 18.128906 16.148438 18.128906 16.210938 18.132812 C 16.359375 18.132812 16.503906 18.148438 16.644531 18.179688 C 16.835938 18.21875 17.011719 18.289062 17.160156 18.378906 L 17.902344 18.839844 L 22.617188 21.765625 L 25.308594 23.4375 L 26.007812 23.875 L 28.550781 25.453125 L 30.222656 26.492188 C 30.269531 26.519531 30.316406 26.546875 30.371094 26.578125 C 30.710938 26.796875 31.152344 27.070312 31.5625 27.320312 C 31.710938 27.417969 31.859375 27.507812 32 27.585938 Z M 32 27.585938 "/>
<use xlink:href="#surface8" mask="url(#mask1)"/>
</g>
</svg>
