<?xml version="1.0" encoding="UTF-8"?>
<svg xmlns="http://www.w3.org/2000/svg" xmlns:xlink="http://www.w3.org/1999/xlink" width="16px" height="16px" viewBox="0 0 16 16" version="1.1">
<g id="surface1">
<path style=" stroke:none;fill-rule:nonzero;fill:rgb(83.529412%,84.313725%,89.803922%);fill-opacity:1;" d="M 10.957031 3.425781 L 10.941406 3.433594 L 5.933594 1.429688 C 5.871094 1.402344 5.804688 1.390625 5.742188 1.390625 L 5.742188 13.953125 L 10.761719 15.960938 C 10.769531 15.964844 10.777344 15.964844 10.78125 15.964844 C 10.839844 15.984375 10.898438 16 10.957031 16 Z M 10.957031 3.425781 "/>
<path style=" stroke:none;fill-rule:nonzero;fill:rgb(87.45098%,88.627451%,93.72549%);fill-opacity:1;" d="M 5.742188 1.390625 C 5.675781 1.390625 5.609375 1.402344 5.546875 1.429688 L 0.328125 3.515625 C 0.128906 3.59375 0 3.785156 0 4 L 0 15.476562 C 0 15.652344 0.0859375 15.8125 0.230469 15.910156 C 0.371094 16.007812 0.554688 16.027344 0.714844 15.960938 L 5.738281 13.953125 L 5.742188 13.953125 Z M 5.742188 1.390625 "/>
<path style=" stroke:none;fill-rule:nonzero;fill:rgb(87.45098%,88.627451%,93.72549%);fill-opacity:1;" d="M 15.757812 1.472656 C 15.609375 1.378906 15.421875 1.363281 15.257812 1.4375 L 10.957031 3.425781 L 10.957031 16 C 11.003906 16 11.046875 15.992188 11.09375 15.980469 C 11.105469 15.976562 11.117188 15.972656 11.128906 15.96875 C 11.144531 15.960938 11.160156 15.957031 11.175781 15.953125 L 15.695312 13.863281 C 15.882812 13.78125 16 13.59375 16 13.390625 L 16 1.914062 C 16 1.734375 15.910156 1.570312 15.757812 1.472656 Z M 15.757812 1.472656 "/>
<path style=" stroke:none;fill-rule:nonzero;fill:rgb(58.431373%,83.921569%,65.098039%);fill-opacity:1;" d="M 5.265625 2.664062 L 1.042969 4.351562 L 1.042969 14.707031 L 5.738281 12.828125 L 5.738281 2.664062 Z M 5.265625 2.664062 "/>
<path style=" stroke:none;fill-rule:nonzero;fill:rgb(20.392157%,71.764706%,44.705882%);fill-opacity:1;" d="M 11.128906 4.496094 L 10.972656 4.566406 L 6.214844 2.664062 L 5.738281 2.664062 L 5.738281 12.828125 L 10.941406 14.910156 L 11.128906 14.824219 Z M 11.128906 4.496094 "/>
<path style=" stroke:none;fill-rule:nonzero;fill:rgb(100%,37.254902%,29.019608%);fill-opacity:1;" d="M 5.742188 0 C 2.933594 0 1.179688 3.050781 2.578125 5.476562 L 5.289062 10.175781 C 5.488281 10.519531 5.992188 10.519531 6.191406 10.175781 L 8.90625 5.476562 C 10.300781 3.054688 8.550781 0 5.742188 0 Z M 5.738281 5.21875 C 4.875 5.21875 4.175781 4.515625 4.175781 3.652344 C 4.175781 2.789062 4.875 2.085938 5.738281 2.085938 C 6.601562 2.085938 7.304688 2.789062 7.304688 3.652344 C 7.304688 4.515625 6.601562 5.21875 5.738281 5.21875 Z M 5.738281 5.21875 "/>
<path style=" stroke:none;fill-rule:nonzero;fill:rgb(58.431373%,83.921569%,65.098039%);fill-opacity:1;" d="M 10.957031 14.929688 L 14.957031 13.058594 L 14.957031 2.726562 L 11.128906 4.496094 Z M 10.957031 14.929688 "/>
<path style=" stroke:none;fill-rule:nonzero;fill:rgb(84.705882%,28.235294%,16.862745%);fill-opacity:1;" d="M 5.742188 0 C 5.742188 0 5.738281 0 5.738281 0 L 5.738281 2.085938 C 6.601562 2.085938 7.304688 2.789062 7.304688 3.652344 C 7.304688 4.515625 6.601562 5.21875 5.738281 5.21875 L 5.738281 10.433594 C 5.914062 10.433594 6.09375 10.347656 6.191406 10.175781 L 8.90625 5.476562 C 10.300781 3.054688 8.550781 0 5.742188 0 Z M 5.742188 0 "/>
</g>
</svg>
